<svg version="1.0" xmlns="http://www.w3.org/2000/svg" width="100.000000pt" height="20.000000pt"
    viewBox="0 0 269.000000 72.000000" preserveAspectRatio="xMidYMid meet">
    <g transform="translate(-40.000000,72.000000) scale(0.100000,-0.100000)" fill="#d32f2f"
        stroke="none">
        <path
            d="M168 662 c-86 -31 -159 -60 -162 -63 -5 -5 42 -442 47 -445 9 -4 238
-130 258 -142 25 -14 31 -12 165 63 76 42 140 79 142 80 6 6 53 428 49 439 -4
11 -313 127 -334 125 -4 0 -79 -26 -165 -57z m272 -252 c55 -123 100 -227 100
-232 0 -4 -18 -8 -39 -8 -38 0 -40 2 -57 50 l-18 50 -89 0 -88 0 -21 -50 c-20
-49 -22 -50 -63 -50 l-43 0 95 213 c52 116 99 223 104 236 5 13 12 22 14 19 3
-3 50 -106 105 -228z" />
        <path
            d="M311 422 c-13 -31 -25 -63 -28 -69 -4 -10 10 -13 52 -13 64 0 63 -3
22 91 l-22 49 -24 -58z" />
    </g>
</svg>