<svg version="1.0" xmlns="http://www.w3.org/2000/svg"
    width="70.000000pt" height="20.000000pt" viewBox="0 0 200.000000 31.000000"
    preserveAspectRatio="xMidYMid meet">

    <g transform="translate(-65.000000,40.000000) scale(0.100000,-0.100000)"
        fill="#38bdf8" stroke="none">
        <path
            d="M1100 170 c0 -123 1 -130 20 -130 19 0 20 7 20 130 0 123 -1 130 -20
130 -19 0 -20 -7 -20 -130z" />
        <path d="M1015 280 c-9 -15 4 -30 26 -30 12 0 19 7 19 20 0 21 -33 29 -45 10z" />
        <path
            d="M1460 270 c0 -16 5 -21 23 -18 12 2 22 10 22 18 0 8 -10 16 -22 18
-18 3 -23 -2 -23 -18z" />
        <path
            d="M1890 243 c0 -37 -3 -44 -12 -35 -22 22 -82 14 -109 -14 -53 -57 -15
-154 61 -154 20 0 41 5 48 12 9 9 12 9 12 0 0 -7 9 -12 20 -12 19 0 20 7 20
125 0 118 -1 125 -20 125 -17 0 -20 -7 -20 -47z m-22 -69 c42 -29 17 -104 -35
-104 -20 0 -53 38 -53 60 0 22 33 60 53 60 7 0 23 -7 35 -16z" />
        <path
            d="M698 272 c-11 -2 -18 -13 -18 -28 0 -15 -6 -24 -15 -24 -8 0 -15 -9
-15 -20 0 -11 7 -20 15 -20 11 0 15 -13 15 -54 0 -63 16 -86 61 -86 36 0 39
25 4 34 -22 6 -25 11 -25 55 0 44 3 50 23 53 28 4 29 32 0 36 -15 2 -23 11
-25 30 -2 20 -8 26 -20 24z" />
        <path
            d="M813 196 c-60 -52 -22 -156 57 -156 20 0 42 6 49 13 11 10 14 9 18 0
3 -7 11 -13 19 -13 11 0 14 19 14 90 0 71 -3 90 -14 90 -8 0 -16 -6 -19 -12
-4 -10 -7 -10 -18 0 -22 20 -75 14 -106 -12z m95 -22 c42 -29 17 -104 -35
-104 -20 0 -53 38 -53 60 0 22 33 60 53 60 7 0 23 -7 35 -16z" />
        <path
            d="M1020 130 c0 -83 1 -90 20 -90 19 0 20 7 20 90 0 83 -1 90 -20 90
-19 0 -20 -7 -20 -90z" />
        <path
            d="M1175 200 c41 -129 53 -155 72 -158 16 -2 22 6 33 45 7 26 16 51 20
56 3 4 14 -18 24 -48 13 -41 22 -55 36 -55 15 0 24 17 44 84 31 100 31 96 7
96 -14 0 -21 -10 -26 -32 -4 -18 -12 -44 -18 -58 -9 -24 -11 -22 -27 30 -13
40 -23 56 -37 58 -17 3 -23 -7 -38 -60 l-18 -63 -17 60 c-13 48 -21 61 -39 63
-19 3 -22 0 -16 -18z" />
        <path
            d="M1460 130 c0 -83 1 -90 20 -90 19 0 20 7 20 90 0 83 -1 90 -20 90
-19 0 -20 -7 -20 -90z" />
        <path
            d="M1550 128 c0 -81 2 -88 20 -88 18 0 20 7 20 65 0 60 2 66 25 77 40
18 55 -3 55 -78 0 -57 2 -64 20 -64 18 0 20 7 20 68 0 97 -13 112 -95 110
l-65 -2 0 -88z" />
        <path
            d="M1996 194 c-57 -58 -18 -154 62 -154 46 0 97 33 73 49 -8 5 -24 3
-42 -6 -26 -13 -32 -13 -54 1 -29 19 -34 66 -10 86 19 16 65 16 74 1 8 -12 41
-5 41 10 0 17 -46 39 -81 39 -26 0 -44 -8 -63 -26z" />
        <path
            d="M2186 204 c-9 -8 -16 -27 -16 -40 0 -20 9 -29 45 -44 25 -11 45 -24
45 -30 0 -17 -27 -22 -50 -10 -12 6 -29 9 -37 6 -14 -6 -14 -9 2 -26 13 -14
31 -20 60 -20 48 0 65 13 65 51 0 30 -14 44 -53 54 -33 9 -43 23 -28 38 9 9
16 8 31 -1 10 -6 26 -9 35 -6 14 6 14 8 -1 25 -21 23 -77 25 -98 3z" />
        <path
            d="M2344 195 c-15 -23 -15 -27 -1 -48 8 -13 30 -28 48 -33 18 -5 34 -15
37 -22 6 -19 -27 -26 -54 -12 -19 11 -27 11 -37 1 -18 -18 17 -41 63 -41 81 0
94 77 18 102 -23 8 -44 20 -46 26 -6 18 28 27 51 13 13 -9 23 -9 30 -2 18 18
-12 41 -54 41 -30 0 -42 -5 -55 -25z" />
    </g>
</svg>